<?xml version="1.0" standalone="no"?>
<!DOCTYPE svg PUBLIC "-//W3C//DTD SVG 20010904//EN"
 "http://www.w3.org/TR/2001/REC-SVG-20010904/DTD/svg10.dtd">
<svg version="1.0" xmlns="http://www.w3.org/2000/svg"
 width="1254.000000pt" height="1254.000000pt" viewBox="0 0 1254.000000 1254.000000"
 preserveAspectRatio="xMidYMid meet">

<g transform="translate(0.000000,1254.000000) scale(0.100000,-0.100000)"
fill="#000000" stroke="none">
<path d="M0 6270 l0 -6270 6270 0 6270 0 0 6270 0 6270 -6270 0 -6270 0 0
-6270z m6895 5196 c753 -59 1270 -154 1800 -331 1048 -350 1911 -999 2526
-1900 425 -622 697 -1332 814 -2122 64 -434 72 -1036 19 -1468 -135 -1104
-622 -2105 -1399 -2880 -524 -523 -1142 -925 -1870 -1217 -523 -210 -1190
-372 -1820 -443 -469 -52 -242 -49 -3412 -52 l-2943 -4 0 75 0 74 53 7 c366
46 621 135 815 282 289 220 392 582 411 1438 12 539 4 6982 -9 7147 -38 495
-140 756 -372 947 -200 165 -448 255 -850 306 l-48 6 0 75 0 74 1842 3 c3309
5 4204 2 4443 -17z"/>
<path d="M5200 11180 c-168 -4 -381 -13 -475 -19 -210 -14 -583 -41 -690 -49
l-80 -7 -3 -4155 c-3 -4223 -1 -4485 34 -4688 36 -213 97 -369 188 -484 148
-186 416 -316 801 -388 208 -38 356 -51 660 -57 986 -18 1762 163 2351 549
174 114 312 226 478 388 525 513 949 1212 1195 1973 234 725 336 1539 303
2420 -20 527 -61 876 -148 1272 -127 573 -331 1073 -621 1519 -477 732 -1110
1231 -1886 1485 -578 189 -1219 262 -2107 241z"/>
</g>
</svg>
